<svg xmlns="http://www.w3.org/2000/svg" width="1364.498046875" height="1504.9923095703125" viewBox="-695.0911254882812 -659.443359375 1364.498046875 1504.9923095703125"><title>Neo4j Graph Visualization</title><desc>Created using Neo4j (http://www.neo4j.com/)</desc><g class="layer relationships"><g class="relationship" transform="translate(-291.7801510670574 427.4920691534498) rotate(333.2974537730315)"><path class="outline" fill="#A5ABB6" stroke="none" d="M 25 0.5 L 29.313545072550212 0.5 L 29.313545072550212 -0.5 L 25 -0.5 Z M 93.10651382255021 0.5 L 97.42005889510042 0.5 L 97.42005889510042 3.5 L 104.42005889510042 0 L 97.42005889510042 -3.5 L 97.42005889510042 -0.5 L 93.10651382255021 -0.5 Z"/><text text-anchor="middle" pointer-events="none" font-size="8px" fill="#000000" x="61.21002944755021" y="3" font-family="sans-serif">SUBGROUP_IS</text></g><g class="relationship" transform="translate(-362.5465403710823 224.86221730156078) rotate(361.93430784943405)"><path class="outline" fill="#A5ABB6" stroke="none" d="M 25 0.5 L 34.00235908734574 0.5 L 34.00235908734574 -0.5 L 25 -0.5 Z M 97.79532783734574 0.5 L 106.79768692469148 0.5 L 106.79768692469148 3.5 L 113.79768692469148 0 L 106.79768692469148 -3.5 L 106.79768692469148 -0.5 L 97.79532783734574 -0.5 Z"/><text text-anchor="middle" pointer-events="none" font-size="8px" fill="#000000" x="65.89884346234574" y="3" font-family="sans-serif">SUBGROUP_IS</text></g><g class="relationship" transform="translate(-304.8127300325786 352.78726800078306) rotate(367.3299270651959)"><path class="outline" fill="#A5ABB6" stroke="none" d="M 25 0.5 L 29.458601555725537 0.5 L 29.458601555725537 -0.5 L 25 -0.5 Z M 93.25157030572554 0.5 L 97.71017186145107 0.5 L 97.71017186145107 3.5 L 104.71017186145107 0 L 97.71017186145107 -3.5 L 97.71017186145107 -0.5 L 93.25157030572554 -0.5 Z"/><text text-anchor="middle" pointer-events="none" font-size="8px" fill="#000000" x="61.35508593072554" y="3" font-family="sans-serif">SUBGROUP_IS</text></g><g class="relationship" transform="translate(-139.70135615004693 486.99530189484) rotate(252.78241488271544)"><path class="outline" fill="#A5ABB6" stroke="none" d="M 25 0.5 L 26.19312753468654 0.5 L 26.19312753468654 -0.5 L 25 -0.5 Z M 89.98609628468654 0.5 L 91.17922381937308 0.5 L 91.17922381937308 3.5 L 98.17922381937308 0 L 91.17922381937308 -3.5 L 91.17922381937308 -0.5 L 89.98609628468654 -0.5 Z"/><text text-anchor="middle" pointer-events="none" font-size="8px" fill="#000000" x="58.08961190968654" y="3" transform="rotate(180 58.08961190968654 0)" font-family="sans-serif">SUBGROUP_IS</text></g><g class="relationship" transform="translate(163.0994976649273 641.9404094854418) rotate(295.0725761520491)"><path class="outline" fill="#A5ABB6" stroke="none" d="M 25 0.5 L 31.859590620417464 0.5 L 31.859590620417464 -0.5 L 25 -0.5 Z M 95.65255937041746 0.5 L 102.51214999083493 0.5 L 102.51214999083493 3.5 L 109.51214999083493 0 L 102.51214999083493 -3.5 L 102.51214999083493 -0.5 L 95.65255937041746 -0.5 Z"/><text text-anchor="middle" pointer-events="none" font-size="8px" fill="#000000" x="63.756074995417464" y="3" font-family="sans-serif">SUBGROUP_IS</text></g><g class="relationship" transform="translate(293.01540268327193 640.9222777628289) rotate(238.88906466282765)"><path class="outline" fill="#A5ABB6" stroke="none" d="M 25 0.5 L 35.161573758274855 0.5 L 35.161573758274855 -0.5 L 25 -0.5 Z M 98.95454250827486 0.5 L 109.11611626654971 0.5 L 109.11611626654971 3.5 L 116.11611626654971 0 L 109.11611626654971 -3.5 L 109.11611626654971 -0.5 L 98.95454250827486 -0.5 Z"/><text text-anchor="middle" pointer-events="none" font-size="8px" fill="#000000" x="67.05805813327486" y="3" transform="rotate(180 67.05805813327486 0)" font-family="sans-serif">SUBGROUP_IS</text></g><g class="relationship" transform="translate(113.84497187633458 582.9288683048724) rotate(329.4055834446067)"><path class="outline" fill="#A5ABB6" stroke="none" d="M 25 0.5 L 26.323558767405153 0.5 L 26.323558767405153 -0.5 L 25 -0.5 Z M 90.11652751740516 0.5 L 91.4400862848103 0.5 L 91.4400862848103 3.5 L 98.4400862848103 0 L 91.4400862848103 -3.5 L 91.4400862848103 -0.5 L 90.11652751740516 -0.5 Z"/><text text-anchor="middle" pointer-events="none" font-size="8px" fill="#000000" x="58.22004314240515" y="3" font-family="sans-serif">SUBGROUP_IS</text></g><g class="relationship" transform="translate(228.8906480958581 657.6984685113308) rotate(266.3449568956687)"><path class="outline" fill="#A5ABB6" stroke="none" d="M 25 0.5 L 33.54142012751694 0.5 L 33.54142012751694 -0.5 L 25 -0.5 Z M 97.33438887751694 0.5 L 105.87580900503389 0.5 L 105.87580900503389 3.5 L 112.87580900503389 0 L 105.87580900503389 -3.5 L 105.87580900503389 -0.5 L 97.33438887751694 -0.5 Z"/><text text-anchor="middle" pointer-events="none" font-size="8px" fill="#000000" x="65.43790450251694" y="3" transform="rotate(180 65.43790450251694 0)" font-family="sans-serif">SUBGROUP_IS</text></g><g class="relationship" transform="translate(333.303426060825 588.3157147271426) rotate(211.07202545089774)"><path class="outline" fill="#A5ABB6" stroke="none" d="M 25 0.5 L 30.686251452359826 0.5 L 30.686251452359826 -0.5 L 25 -0.5 Z M 94.47922020235983 0.5 L 100.16547165471965 0.5 L 100.16547165471965 3.5 L 107.16547165471965 0 L 100.16547165471965 -3.5 L 100.16547165471965 -0.5 L 94.47922020235983 -0.5 Z"/><text text-anchor="middle" pointer-events="none" font-size="8px" fill="#000000" x="62.582735827359826" y="3" transform="rotate(180 62.582735827359826 0)" font-family="sans-serif">SUBGROUP_IS</text></g><g class="relationship" transform="translate(217.6168944653151 213.5987723808721) rotate(215.56631416139612)"><path class="outline" fill="#A5ABB6" stroke="none" d="M 25 0.5 L 34.04654958974562 0.5 L 34.04654958974562 -0.5 L 25 -0.5 Z M 81.39029958974561 0.5 L 90.43684917949123 0.5 L 90.43684917949123 3.5 L 97.43684917949123 0 L 90.43684917949123 -3.5 L 90.43684917949123 -0.5 L 81.39029958974561 -0.5 Z"/><text text-anchor="middle" pointer-events="none" font-size="8px" fill="#000000" x="57.71842458974562" y="3" transform="rotate(180 57.71842458974562 0)" font-family="sans-serif">GROUP_IS</text></g><g class="relationship" transform="translate(640.4069513753969 180.85103692349668) rotate(197.1698121542015)"><path class="outline" fill="#A5ABB6" stroke="none" d="M 25 0.5 L 40.40466932805852 0.5 L 40.40466932805852 -0.5 L 25 -0.5 Z M 104.19763807805852 0.5 L 119.60230740611703 0.5 L 119.60230740611703 3.5 L 126.60230740611703 0 L 119.60230740611703 -3.5 L 119.60230740611703 -0.5 L 104.19763807805852 -0.5 Z"/><text text-anchor="middle" pointer-events="none" font-size="8px" fill="#000000" x="72.30115370305852" y="3" transform="rotate(180 72.30115370305852 0)" font-family="sans-serif">SUBGROUP_IS</text></g><g class="relationship" transform="translate(585.8680264623463 285.0517959944643) rotate(211.60042216740987)"><path class="outline" fill="#A5ABB6" stroke="none" d="M 25 0.5 L 38.14984238908312 0.5 L 38.14984238908312 -0.5 L 25 -0.5 Z M 101.94281113908312 0.5 L 115.09265352816624 0.5 L 115.09265352816624 3.5 L 122.09265352816624 0 L 115.09265352816624 -3.5 L 115.09265352816624 -0.5 L 101.94281113908312 -0.5 Z"/><text text-anchor="middle" pointer-events="none" font-size="8px" fill="#000000" x="70.04632676408312" y="3" transform="rotate(180 70.04632676408312 0)" font-family="sans-serif">SUBGROUP_IS</text></g><g class="relationship" transform="translate(102.03971404328898 20.76312456886041) rotate(442.51384404481536)"><path class="outline" fill="#A5ABB6" stroke="none" d="M 25 0.5 L 34.16135077553509 0.5 L 34.16135077553509 -0.5 L 25 -0.5 Z M 81.50510077553508 0.5 L 90.66645155107018 0.5 L 90.66645155107018 3.5 L 97.66645155107018 0 L 90.66645155107018 -3.5 L 90.66645155107018 -0.5 L 81.50510077553508 -0.5 Z"/><text text-anchor="middle" pointer-events="none" font-size="8px" fill="#000000" x="57.83322577553509" y="3" font-family="sans-serif">GROUP_IS</text></g><g class="relationship" transform="translate(235.45910630236958 128.38738293333245) rotate(533.2033458585598)"><path class="outline" fill="#A5ABB6" stroke="none" d="M 25 0.5 L 31.962493210132926 0.5 L 31.962493210132926 -0.5 L 25 -0.5 Z M 79.30624321013292 0.5 L 86.26873642026585 0.5 L 86.26873642026585 3.5 L 93.26873642026585 0 L 86.26873642026585 -3.5 L 86.26873642026585 -0.5 L 79.30624321013292 -0.5 Z"/><text text-anchor="middle" pointer-events="none" font-size="8px" fill="#000000" x="55.634368210132926" y="3" transform="rotate(180 55.634368210132926 0)" font-family="sans-serif">GROUP_IS</text></g><g class="relationship" transform="translate(-4.603720089830185 134.4822428372802) rotate(363.6869490722378)"><path class="outline" fill="#A5ABB6" stroke="none" d="M 25 0.5 L 34.26790386703097 0.5 L 34.26790386703097 -0.5 L 25 -0.5 Z M 81.61165386703097 0.5 L 90.87955773406193 0.5 L 90.87955773406193 3.5 L 97.87955773406193 0 L 90.87955773406193 -3.5 L 90.87955773406193 -0.5 L 81.61165386703097 -0.5 Z"/><text text-anchor="middle" pointer-events="none" font-size="8px" fill="#000000" x="57.93977886703097" y="3" font-family="sans-serif">GROUP_IS</text></g><g class="relationship" transform="translate(144.9676212879583 261.17394564137464) rotate(257.21940352426634)"><path class="outline" fill="#A5ABB6" stroke="none" d="M 25 0.5 L 33.732026591789676 0.5 L 33.732026591789676 -0.5 L 25 -0.5 Z M 81.07577659178968 0.5 L 89.80780318357935 0.5 L 89.80780318357935 3.5 L 96.80780318357935 0 L 89.80780318357935 -3.5 L 89.80780318357935 -0.5 L 81.07577659178968 -0.5 Z"/><text text-anchor="middle" pointer-events="none" font-size="8px" fill="#000000" x="57.403901591789676" y="3" transform="rotate(180 57.403901591789676 0)" font-family="sans-serif">GROUP_IS</text></g><g class="relationship" transform="translate(29.822456974533903 58.61849950193748) rotate(403.5231433532366)"><path class="outline" fill="#A5ABB6" stroke="none" d="M 25 0.5 L 33.64698445137069 0.5 L 33.64698445137069 -0.5 L 25 -0.5 Z M 80.99073445137068 0.5 L 89.63771890274138 0.5 L 89.63771890274138 3.5 L 96.63771890274138 0 L 89.63771890274138 -3.5 L 89.63771890274138 -0.5 L 80.99073445137068 -0.5 Z"/><text text-anchor="middle" pointer-events="none" font-size="8px" fill="#000000" x="57.31885945137069" y="3" font-family="sans-serif">GROUP_IS</text></g><g class="relationship" transform="translate(20.568664175610017 213.7282484790719) rotate(323.79252260774297)"><path class="outline" fill="#A5ABB6" stroke="none" d="M 25 0.5 L 33.21657106991234 0.5 L 33.21657106991234 -0.5 L 25 -0.5 Z M 80.56032106991233 0.5 L 88.77689213982468 0.5 L 88.77689213982468 3.5 L 95.77689213982468 0 L 88.77689213982468 -3.5 L 88.77689213982468 -0.5 L 80.56032106991233 -0.5 Z"/><text text-anchor="middle" pointer-events="none" font-size="8px" fill="#000000" x="56.88844606991234" y="3" font-family="sans-serif">GROUP_IS</text></g><g class="relationship" transform="translate(-227.60497480068318 483.0212973714018) rotate(294.34668409539216)"><path class="outline" fill="#A5ABB6" stroke="none" d="M 25 0.5 L 26.994741107251514 0.5 L 26.994741107251514 -0.5 L 25 -0.5 Z M 90.78770985725151 0.5 L 92.78245096450303 0.5 L 92.78245096450303 3.5 L 99.78245096450303 0 L 92.78245096450303 -3.5 L 92.78245096450303 -0.5 L 90.78770985725151 -0.5 Z"/><text text-anchor="middle" pointer-events="none" font-size="8px" fill="#000000" x="58.891225482251514" y="3" font-family="sans-serif">SUBGROUP_IS</text></g><g class="relationship" transform="translate(512.7933915528547 434.5727711407089) rotate(201.14066444674313)"><path class="outline" fill="#A5ABB6" stroke="none" d="M 25 0.5 L 37.629407470294595 0.5 L 37.629407470294595 -0.5 L 25 -0.5 Z M 101.4223762202946 0.5 L 114.05178369058919 0.5 L 114.05178369058919 3.5 L 121.05178369058919 0 L 114.05178369058919 -3.5 L 114.05178369058919 -0.5 L 101.4223762202946 -0.5 Z"/><text text-anchor="middle" pointer-events="none" font-size="8px" fill="#000000" x="69.5258918452946" y="3" transform="rotate(180 69.5258918452946 0)" font-family="sans-serif">SUBGROUP_IS</text></g><g class="relationship" transform="translate(454.68315026041716 541.6728594156885) rotate(216.7094932362536)"><path class="outline" fill="#A5ABB6" stroke="none" d="M 25 0.5 L 38.91101593143793 0.5 L 38.91101593143793 -0.5 L 25 -0.5 Z M 102.70398468143793 0.5 L 116.61500061287586 0.5 L 116.61500061287586 3.5 L 123.61500061287586 0 L 116.61500061287586 -3.5 L 116.61500061287586 -0.5 L 102.70398468143793 -0.5 Z"/><text text-anchor="middle" pointer-events="none" font-size="8px" fill="#000000" x="70.80750030643793" y="3" transform="rotate(180 70.80750030643793 0)" font-family="sans-serif">SUBGROUP_IS</text></g><g class="relationship" transform="translate(193.30165498386475 -163.0342886854768) rotate(461.47173220424196)"><path class="outline" fill="#A5ABB6" stroke="none" d="M 25 0.5 L 42.932893749636136 0.5 L 42.932893749636136 -0.5 L 25 -0.5 Z M 90.27664374963614 0.5 L 108.20953749927227 0.5 L 108.20953749927227 3.5 L 115.20953749927227 0 L 108.20953749927227 -3.5 L 108.20953749927227 -0.5 L 90.27664374963614 -0.5 Z"/><text text-anchor="middle" pointer-events="none" font-size="8px" fill="#000000" x="66.60476874963614" y="3" transform="rotate(180 66.60476874963614 0)" font-family="sans-serif">GROUP_IS</text></g><g class="relationship" transform="translate(569.0734621032642 -102.54146242753603) rotate(488.139122946899)"><path class="outline" fill="#A5ABB6" stroke="none" d="M 24.018736134675446,-6.953439040707552 L 24.277555179777966,-5.987513214418485 A 164.96975917452238 164.96975917452238 0 0 1 33.331596019333325,-8.141753298048343 L 33.12766000785381,-9.120737518157028 A 165.96975917452238 165.96975917452238 0 0 0 24.018736134675446,-6.953439040707552 Z M 96.71280894517164,-9.922813250181008 L 96.5336320976968,-8.93899636817045 A 164.96975917452238 164.96975917452238 0 0 1 105.63913145405311,-7.013824341143173 L 104.93601602985535,-4.097383239345436 L 112.56134659561414,-5.859295201648013 L 106.5766186863168,-10.90241247687349 L 105.87350326211904,-7.985971375075752 A 165.96975917452238 165.96975917452238 0 0 0 96.71280894517164,-9.922813250181008"/><text text-anchor="middle" pointer-events="none" font-size="8px" fill="#000000" x="64.88776826489035" y="-9.095558406166049" transform="rotate(180 64.88776826489035 -12.095558406166049)" font-family="sans-serif">SUBGROUP_IS</text></g><g class="relationship" transform="translate(569.0734621032642 -102.54146242753603) rotate(488.139122946899)"><path class="outline" fill="#A5ABB6" stroke="none" d="M 24.018736134675446,6.953439040707552 L 24.277555179777966,5.987513214418485 A 164.96975917452238 164.96975917452238 0 0 0 33.331596019333354,8.141753298048343 L 33.12766000785385,9.120737518157028 A 165.96975917452238 165.96975917452238 0 0 1 24.018736134675446,6.953439040707552 Z M 96.7128089451717,9.92281325018098 L 96.53363209769685,8.938996368170422 A 164.96975917452238 164.96975917452238 0 0 0 105.63913145405311,7.013824341143173 L 104.93601602985535,4.097383239345436 L 112.56134659561414,5.859295201648013 L 106.5766186863168,10.90241247687349 L 105.87350326211904,7.985971375075752 A 165.96975917452238 165.96975917452238 0 0 1 96.7128089451717,9.92281325018098"/><text text-anchor="middle" pointer-events="none" font-size="8px" fill="#000000" x="64.8877682648904" y="15.095558406166049" transform="rotate(180 64.8877682648904 12.095558406166049)" font-family="sans-serif">SUBGROUP_IS</text></g><g class="relationship" transform="translate(611.300687883542 -58.63898003647919) rotate(513.3020184419952)"><path class="outline" fill="#A5ABB6" stroke="none" d="M 25 0.5 L 35.54217215182091 0.5 L 35.54217215182091 -0.5 L 25 -0.5 Z M 99.3351409018209 0.5 L 109.87731305364181 0.5 L 109.87731305364181 3.5 L 116.87731305364181 0 L 109.87731305364181 -3.5 L 109.87731305364181 -0.5 L 99.3351409018209 -0.5 Z"/><text text-anchor="middle" pointer-events="none" font-size="8px" fill="#000000" x="67.4386565268209" y="3" transform="rotate(180 67.4386565268209 0)" font-family="sans-serif">SUBGROUP_IS</text></g><g class="relationship" transform="translate(627.7826551386405 0.6088057849856221) rotate(538.2021451826897)"><path class="outline" fill="#A5ABB6" stroke="none" d="M 25 0.5 L 36.25545984980985 0.5 L 36.25545984980985 -0.5 L 25 -0.5 Z M 100.04842859980985 0.5 L 111.3038884496197 0.5 L 111.3038884496197 3.5 L 118.3038884496197 0 L 111.3038884496197 -3.5 L 111.3038884496197 -0.5 L 100.04842859980985 -0.5 Z"/><text text-anchor="middle" pointer-events="none" font-size="8px" fill="#000000" x="68.15194422480985" y="3" transform="rotate(180 68.15194422480985 0)" font-family="sans-serif">SUBGROUP_IS</text></g><g class="relationship" transform="translate(602.8297079783556 60.7875425963747) rotate(205.2096304896)"><path class="outline" fill="#A5ABB6" stroke="none" d="M 25 0.5 L 29.969463340792913 0.5 L 29.969463340792913 -0.5 L 25 -0.5 Z M 93.76243209079291 0.5 L 98.73189543158583 0.5 L 98.73189543158583 3.5 L 105.73189543158583 0 L 98.73189543158583 -3.5 L 98.73189543158583 -0.5 L 93.76243209079291 -0.5 Z"/><text text-anchor="middle" pointer-events="none" font-size="8px" fill="#000000" x="61.86594771579291" y="3" transform="rotate(180 61.86594771579291 0)" font-family="sans-serif">SUBGROUP_IS</text></g><g class="relationship" transform="translate(507.18381495788805 -124.73203330802511) rotate(459.88902055559623)"><path class="outline" fill="#A5ABB6" stroke="none" d="M 25 0.5 L 30.500983580859824 0.5 L 30.500983580859824 -0.5 L 25 -0.5 Z M 94.29395233085982 0.5 L 99.79493591171965 0.5 L 99.79493591171965 3.5 L 106.79493591171965 0 L 99.79493591171965 -3.5 L 99.79493591171965 -0.5 L 94.29395233085982 -0.5 Z"/><text text-anchor="middle" pointer-events="none" font-size="8px" fill="#000000" x="62.397467955859824" y="3" transform="rotate(180 62.397467955859824 0)" font-family="sans-serif">SUBGROUP_IS</text></g><g class="relationship" transform="translate(435.2957325537998 -105.52274224771614) rotate(426.00040853147055)"><path class="outline" fill="#A5ABB6" stroke="none" d="M 25 0.5 L 25.151744016699126 0.5 L 25.151744016699126 -0.5 L 25 -0.5 Z M 88.94471276669913 0.5 L 89.09645678339825 0.5 L 89.09645678339825 3.5 L 96.09645678339825 0 L 89.09645678339825 -3.5 L 89.09645678339825 -0.5 L 88.94471276669913 -0.5 Z"/><text text-anchor="middle" pointer-events="none" font-size="8px" fill="#000000" x="57.048228391699126" y="3" font-family="sans-serif">SUBGROUP_IS</text></g><g class="relationship" transform="translate(-203.27840178017183 -414.924425398684) rotate(420.68481264287493)"><path class="outline" fill="#A5ABB6" stroke="none" d="M 25 0.5 L 30.07077615895424 0.5 L 30.07077615895424 -0.5 L 25 -0.5 Z M 77.41452615895423 0.5 L 82.48530231790848 0.5 L 82.48530231790848 3.5 L 89.48530231790848 0 L 82.48530231790848 -3.5 L 82.48530231790848 -0.5 L 77.41452615895423 -0.5 Z"/><text text-anchor="middle" pointer-events="none" font-size="8px" fill="#000000" x="53.74265115895424" y="3" font-family="sans-serif">GROUP_IS</text></g><g class="relationship" transform="translate(-375.4193571888651 -279.70512793583714) rotate(378.94194530804424)"><path class="outline" fill="#A5ABB6" stroke="none" d="M 25 0.5 L 26.557946935477418 0.5 L 26.557946935477418 -0.5 L 25 -0.5 Z M 90.35091568547742 0.5 L 91.90886262095484 0.5 L 91.90886262095484 3.5 L 98.90886262095484 0 L 91.90886262095484 -3.5 L 91.90886262095484 -0.5 L 90.35091568547742 -0.5 Z"/><text text-anchor="middle" pointer-events="none" font-size="8px" fill="#000000" x="58.45443131047742" y="3" font-family="sans-serif">SUBGROUP_IS</text></g><g class="relationship" transform="translate(-109.90156881943977 816.5489683041634) rotate(202.7890764468449)"><path class="outline" fill="#A5ABB6" stroke="none" d="M 25 0.5 L 25.708305815882326 0.5 L 25.708305815882326 -0.5 L 25 -0.5 Z M 80.15752456588233 0.5 L 80.86583038176465 0.5 L 80.86583038176465 3.5 L 87.86583038176465 0 L 80.86583038176465 -3.5 L 80.86583038176465 -0.5 L 80.15752456588233 -0.5 Z"/><text text-anchor="middle" pointer-events="none" font-size="8px" fill="#000000" x="52.932915190882326" y="3" transform="rotate(180 52.932915190882326 0)" font-family="sans-serif">SUBGROU…</text></g><g class="relationship" transform="translate(-419.77960737966157 639.8822650851595) rotate(227.20298676074344)"><path class="outline" fill="#A5ABB6" stroke="none" d="M 25 0.5 L 30.939123925581846 0.5 L 30.939123925581846 -0.5 L 25 -0.5 Z M 76.80631142558184 0.5 L 82.74543535116369 0.5 L 82.74543535116369 3.5 L 89.74543535116369 0 L 82.74543535116369 -3.5 L 82.74543535116369 -0.5 L 76.80631142558184 -0.5 Z"/><text text-anchor="middle" pointer-events="none" font-size="8px" fill="#000000" x="53.872717675581846" y="3" transform="rotate(180 53.872717675581846 0)" font-family="sans-serif">FAMILY_IS</text></g><g class="relationship" transform="translate(73.58499320378672 267.080064515229) rotate(289.61396637778734)"><path class="outline" fill="#A5ABB6" stroke="none" d="M 25 0.5 L 31.530371411670814 0.5 L 31.530371411670814 -0.5 L 25 -0.5 Z M 93.84677766167081 0.5 L 100.37714907334163 0.5 L 100.37714907334163 3.5 L 107.37714907334163 0 L 100.37714907334163 -3.5 L 100.37714907334163 -0.5 L 93.84677766167081 -0.5 Z"/><text text-anchor="middle" pointer-events="none" font-size="8px" fill="#000000" x="62.688574536670814" y="3" font-family="sans-serif">SUBFAMILY_IS</text></g><g class="relationship" transform="translate(345.6047248870179 -529.0022416379735) rotate(386.9067017270312)"><path class="outline" fill="#A5ABB6" stroke="none" d="M 25 0.5 L 31.93523002379584 0.5 L 31.93523002379584 -0.5 L 25 -0.5 Z M 77.80241752379584 0.5 L 84.73764754759168 0.5 L 84.73764754759168 3.5 L 91.73764754759168 0 L 84.73764754759168 -3.5 L 84.73764754759168 -0.5 L 77.80241752379584 -0.5 Z"/><text text-anchor="middle" pointer-events="none" font-size="8px" fill="#000000" x="54.86882377379584" y="3" font-family="sans-serif">FAMILY_IS</text></g><g class="relationship" transform="translate(354.66433781577445 -420.61186000982957) rotate(329.6888446768878)"><path class="outline" fill="#A5ABB6" stroke="none" d="M 25 0.5 L 28.611495488727513 0.5 L 28.611495488727513 -0.5 L 25 -0.5 Z M 74.47868298872751 0.5 L 78.09017847745503 0.5 L 78.09017847745503 3.5 L 85.09017847745503 0 L 78.09017847745503 -3.5 L 78.09017847745503 -0.5 L 74.47868298872751 -0.5 Z"/><text text-anchor="middle" pointer-events="none" font-size="8px" fill="#000000" x="51.54508923872751" y="3" font-family="sans-serif">FAMILY_IS</text></g><g class="relationship" transform="translate(526.5938920439842 -393.72882329383566) rotate(226.99713014913345)"><path class="outline" fill="#A5ABB6" stroke="none" d="M 25 0.5 L 29.93374875504057 0.5 L 29.93374875504057 -0.5 L 25 -0.5 Z M 75.80093625504057 0.5 L 80.73468501008114 0.5 L 80.73468501008114 3.5 L 87.73468501008114 0 L 80.73468501008114 -3.5 L 80.73468501008114 -0.5 L 75.80093625504057 -0.5 Z"/><text text-anchor="middle" pointer-events="none" font-size="8px" fill="#000000" x="52.86734250504057" y="3" transform="rotate(180 52.86734250504057 0)" font-family="sans-serif">FAMILY_IS</text></g><g class="relationship" transform="translate(562.4826138559857 -487.99736870631324) rotate(534.0150494231837)"><path class="outline" fill="#A5ABB6" stroke="none" d="M 25 0.5 L 30.2643094357624 0.5 L 30.2643094357624 -0.5 L 25 -0.5 Z M 76.1314969357624 0.5 L 81.3958063715248 0.5 L 81.3958063715248 3.5 L 88.3958063715248 0 L 81.3958063715248 -3.5 L 81.3958063715248 -0.5 L 76.1314969357624 -0.5 Z"/><text text-anchor="middle" pointer-events="none" font-size="8px" fill="#000000" x="53.1979031857624" y="3" transform="rotate(180 53.1979031857624 0)" font-family="sans-serif">FAMILY_IS</text></g><g class="relationship" transform="translate(440.98864941214634 -585.4864436040441) rotate(445.44105799711866)"><path class="outline" fill="#A5ABB6" stroke="none" d="M 25 0.5 L 28.396153613056242 0.5 L 28.396153613056242 -0.5 L 25 -0.5 Z M 74.26334111305624 0.5 L 77.65949472611248 0.5 L 77.65949472611248 3.5 L 84.65949472611248 0 L 77.65949472611248 -3.5 L 77.65949472611248 -0.5 L 74.26334111305624 -0.5 Z"/><text text-anchor="middle" pointer-events="none" font-size="8px" fill="#000000" x="51.32974736305624" y="3" font-family="sans-serif">FAMILY_IS</text></g><g class="relationship" transform="translate(118.02151279879538 142.38401276110122) rotate(236.5758607196516)"><path class="outline" fill="#A5ABB6" stroke="none" d="M 25 0.5 L 77.06675859610571 0.5 L 77.06675859610571 -0.5 L 25 -0.5 Z M 122.93394609610571 0.5 L 175.00070469221143 0.5 L 175.00070469221143 3.5 L 182.00070469221143 0 L 175.00070469221143 -3.5 L 175.00070469221143 -0.5 L 122.93394609610571 -0.5 Z"/><text text-anchor="middle" pointer-events="none" font-size="8px" fill="#000000" x="100.00035234610571" y="3" transform="rotate(180 100.00035234610571 0)" font-family="sans-serif">FAMILY_IS</text></g><g class="relationship" transform="translate(-118.58069735811017 -173.7254486419776) rotate(409.46472874757006)"><path class="outline" fill="#A5ABB6" stroke="none" d="M 25 0.5 L 67.87052021213673 0.5 L 67.87052021213673 -0.5 L 25 -0.5 Z M 113.73770771213673 0.5 L 156.60822792427345 0.5 L 156.60822792427345 3.5 L 163.60822792427345 0 L 156.60822792427345 -3.5 L 156.60822792427345 -0.5 L 113.73770771213673 -0.5 Z"/><text text-anchor="middle" pointer-events="none" font-size="8px" fill="#000000" x="90.80411396213673" y="3" font-family="sans-serif">FAMILY_IS</text></g><g class="relationship" transform="translate(-139.51341676399497 -605.8098028831654) rotate(346.81197148899935)"><path class="outline" fill="#A5ABB6" stroke="none" d="M 25 0.5 L 27.552440773284133 0.5 L 27.552440773284133 -0.5 L 25 -0.5 Z M 73.41962827328413 0.5 L 75.97206904656827 0.5 L 75.97206904656827 3.5 L 82.97206904656827 0 L 75.97206904656827 -3.5 L 75.97206904656827 -0.5 L 73.41962827328413 -0.5 Z"/><text text-anchor="middle" pointer-events="none" font-size="8px" fill="#000000" x="50.48603452328413" y="3" font-family="sans-serif">FAMILY_IS</text></g><g class="relationship" transform="translate(38.010904132445674 -557.3406566222072) rotate(225.27676695468642)"><path class="outline" fill="#A5ABB6" stroke="none" d="M 25 0.5 L 25.009923108128653 0.5 L 25.009923108128653 -0.5 L 25 -0.5 Z M 70.87711060812865 0.5 L 70.8870337162573 0.5 L 70.8870337162573 3.5 L 77.8870337162573 0 L 70.8870337162573 -3.5 L 70.8870337162573 -0.5 L 70.87711060812865 -0.5 Z"/><text text-anchor="middle" pointer-events="none" font-size="8px" fill="#000000" x="47.94351685812865" y="3" transform="rotate(180 47.94351685812865 0)" font-family="sans-serif">FAMILY_IS</text></g><g class="relationship" transform="translate(-87.75671722932624 76.91057222903862) rotate(377.64975739240214)"><path class="outline" fill="#A5ABB6" stroke="none" d="M 32.5 0.5 L 77.06338036877405 0.5 L 77.06338036877405 -0.5 L 32.5 -0.5 Z M 139.37978661877406 0.5 L 183.9431669875481 0.5 L 183.9431669875481 3.5 L 190.9431669875481 0 L 183.9431669875481 -3.5 L 183.9431669875481 -0.5 L 139.37978661877406 -0.5 Z"/><text text-anchor="middle" pointer-events="none" font-size="8px" fill="#000000" x="108.22158349377405" y="3" font-family="sans-serif">SUBFAMILY_IS</text></g><g class="relationship" transform="translate(163.92452507498876 -18.27555248428601) rotate(465.9454880058967)"><path class="outline" fill="#A5ABB6" stroke="none" d="M 32.5 0.5 L 52.63607022881102 0.5 L 52.63607022881102 -0.5 L 32.5 -0.5 Z M 114.95247647881102 0.5 L 135.08854670762204 0.5 L 135.08854670762204 3.5 L 142.08854670762204 0 L 135.08854670762204 -3.5 L 135.08854670762204 -0.5 L 114.95247647881102 -0.5 Z"/><text text-anchor="middle" pointer-events="none" font-size="8px" fill="#000000" x="83.79427335381102" y="3" transform="rotate(180 83.79427335381102 0)" font-family="sans-serif">SUBFAMILY_IS</text></g><g class="relationship" transform="translate(-63.56188326346179 247.67316851444332) rotate(329.89316497030023)"><path class="outline" fill="#A5ABB6" stroke="none" d="M 32.5 0.5 L 74.04218520771902 0.5 L 74.04218520771902 -0.5 L 32.5 -0.5 Z M 136.358591457719 0.5 L 177.90077666543803 0.5 L 177.90077666543803 3.5 L 184.90077666543803 0 L 177.90077666543803 -3.5 L 177.90077666543803 -0.5 L 136.358591457719 -0.5 Z"/><text text-anchor="middle" pointer-events="none" font-size="8px" fill="#000000" x="105.20038833271902" y="3" font-family="sans-serif">SUBFAMILY_IS</text></g><g class="relationship" transform="translate(337.9276160655555 103.38825000696262) rotate(529.9443208195954)"><path class="outline" fill="#A5ABB6" stroke="none" d="M 32.5 0.5 L 80.76023888834149 0.5 L 80.76023888834149 -0.5 L 32.5 -0.5 Z M 143.0766451383415 0.5 L 191.33688402668298 0.5 L 191.33688402668298 3.5 L 198.33688402668298 0 L 191.33688402668298 -3.5 L 191.33688402668298 -0.5 L 143.0766451383415 -0.5 Z"/><text text-anchor="middle" pointer-events="none" font-size="8px" fill="#000000" x="111.91844201334149" y="3" transform="rotate(180 111.91844201334149 0)" font-family="sans-serif">SUBFAMILY_IS</text></g><g class="relationship" transform="translate(-1.4534537278958626 -168.2213923757372) rotate(447.7348328425577)"><path class="outline" fill="#A5ABB6" stroke="none" d="M 32.5 0.5 L 46.28996795029576 0.5 L 46.28996795029576 -0.5 L 32.5 -0.5 Z M 92.15715545029576 0.5 L 105.94712340059152 0.5 L 105.94712340059152 3.5 L 112.94712340059152 0 L 105.94712340059152 -3.5 L 105.94712340059152 -0.5 L 92.15715545029576 -0.5 Z"/><text text-anchor="middle" pointer-events="none" font-size="8px" fill="#000000" x="69.22356170029576" y="3" font-family="sans-serif">FAMILY_IS</text></g><g class="relationship" transform="translate(218.58124529262471 342.73501359399216) rotate(243.3471110422161)"><path class="outline" fill="#A5ABB6" stroke="none" d="M 32.5 0.5 L 81.17745980069668 0.5 L 81.17745980069668 -0.5 L 32.5 -0.5 Z M 143.49386605069668 0.5 L 192.17132585139336 0.5 L 192.17132585139336 3.5 L 199.17132585139336 0 L 192.17132585139336 -3.5 L 192.17132585139336 -0.5 L 143.49386605069668 -0.5 Z"/><text text-anchor="middle" pointer-events="none" font-size="8px" fill="#000000" x="112.33566292569668" y="3" transform="rotate(180 112.33566292569668 0)" font-family="sans-serif">SUBFAMILY_IS</text></g><g class="relationship" transform="translate(-143.552739567786 -308.5606192666942) rotate(439.50746869972187)"><path class="outline" fill="#A5ABB6" stroke="none" d="M 32.5 0.5 L 37.655865689354684 0.5 L 37.655865689354684 -0.5 L 32.5 -0.5 Z M 99.97227193935468 0.5 L 105.12813762870937 0.5 L 105.12813762870937 3.5 L 112.12813762870937 0 L 105.12813762870937 -3.5 L 105.12813762870937 -0.5 L 99.97227193935468 -0.5 Z"/><text text-anchor="middle" pointer-events="none" font-size="8px" fill="#000000" x="68.81406881435468" y="3" font-family="sans-serif">SUBFAMILY_IS</text></g><g class="relationship" transform="translate(-251.12655115327448 -237.04850426339877) rotate(385.5358830922711)"><path class="outline" fill="#A5ABB6" stroke="none" d="M 32.5 0.5 L 42.53941891193642 0.5 L 42.53941891193642 -0.5 L 32.5 -0.5 Z M 104.85582516193642 0.5 L 114.89524407387285 0.5 L 114.89524407387285 3.5 L 121.89524407387285 0 L 114.89524407387285 -3.5 L 114.89524407387285 -0.5 L 104.85582516193642 -0.5 Z"/><text text-anchor="middle" pointer-events="none" font-size="8px" fill="#000000" x="73.69762203693642" y="3" font-family="sans-serif">SUBFAMILY_IS</text></g><g class="relationship" transform="translate(126.33423884773215 -494.9518009511601) rotate(215.23619440953325)"><path class="outline" fill="#A5ABB6" stroke="none" d="M 32.5 0.5 L 34.20273388526311 0.5 L 34.20273388526311 -0.5 L 32.5 -0.5 Z M 74.43320263526311 0.5 L 76.13593652052622 0.5 L 76.13593652052622 3.5 L 83.13593652052622 0 L 76.13593652052622 -3.5 L 76.13593652052622 -0.5 L 74.43320263526311 -0.5 Z"/><text text-anchor="middle" pointer-events="none" font-size="8px" fill="#000000" x="54.31796826026311" y="3" transform="rotate(180 54.31796826026311 0)" font-family="sans-serif">SUBFA…</text></g><g class="relationship" transform="translate(-321.6874520364643 714.446837746027) rotate(217.24021498839124)"><path class="outline" fill="#A5ABB6" stroke="none" d="M 32.5 0.5 L 32.70322384279007 0.5 L 32.70322384279007 -0.5 L 32.5 -0.5 Z M 91.01181759279007 0.5 L 91.21504143558013 0.5 L 91.21504143558013 3.5 L 98.21504143558013 0 L 91.21504143558013 -3.5 L 91.21504143558013 -0.5 L 91.01181759279007 -0.5 Z"/><text text-anchor="middle" pointer-events="none" font-size="8px" fill="#000000" x="61.85752071779007" y="3" transform="rotate(180 61.85752071779007 0)" font-family="sans-serif">SUBFAMILY…</text></g><g class="relationship" transform="translate(484.5493100773933 5.104726974990065) rotate(506.1652438378838)"><path class="outline" fill="#A5ABB6" stroke="none" d="M 25 0.5 L 57.335662998854886 0.5 L 57.335662998854886 -0.5 L 25 -0.5 Z M 104.67941299885489 0.5 L 137.01507599770977 0.5 L 137.01507599770977 3.5 L 144.01507599770977 0 L 137.01507599770977 -3.5 L 137.01507599770977 -0.5 L 104.67941299885489 -0.5 Z"/><text text-anchor="middle" pointer-events="none" font-size="8px" fill="#000000" x="81.00753799885489" y="3" transform="rotate(180 81.00753799885489 0)" font-family="sans-serif">GROUP_IS</text></g><g class="relationship" transform="translate(-274.7177666492316 20.807022051838196) rotate(376.7035276250632)"><path class="outline" fill="#A5ABB6" stroke="none" d="M 25 0.5 L 66.67684725428714 0.5 L 66.67684725428714 -0.5 L 25 -0.5 Z M 114.02059725428714 0.5 L 155.69744450857428 0.5 L 155.69744450857428 3.5 L 162.69744450857428 0 L 155.69744450857428 -3.5 L 155.69744450857428 -0.5 L 114.02059725428714 -0.5 Z"/><text text-anchor="middle" pointer-events="none" font-size="8px" fill="#000000" x="90.34872225428714" y="3" font-family="sans-serif">GROUP_IS</text></g><g class="relationship" transform="translate(-223.8279425963007 229.54714281249693) rotate(366.4527091201411)"><path class="outline" fill="#A5ABB6" stroke="none" d="M 25 0.5 L 49.722037637322885 0.5 L 49.722037637322885 -0.5 L 25 -0.5 Z M 97.06578763732288 0.5 L 121.78782527464577 0.5 L 121.78782527464577 3.5 L 128.78782527464577 0 L 121.78782527464577 -3.5 L 121.78782527464577 -0.5 L 97.06578763732288 -0.5 Z"/><text text-anchor="middle" pointer-events="none" font-size="8px" fill="#000000" x="73.39391263732288" y="3" font-family="sans-serif">GROUP_IS</text></g><g class="relationship" transform="translate(-176.16255771681273 369.33603978152024) rotate(312.78468790088965)"><path class="outline" fill="#A5ABB6" stroke="none" d="M 25 0.5 L 51.96474354047801 0.5 L 51.96474354047801 -0.5 L 25 -0.5 Z M 99.30849354047801 0.5 L 126.27323708095602 0.5 L 126.27323708095602 3.5 L 133.27323708095602 0 L 126.27323708095602 -3.5 L 126.27323708095602 -0.5 L 99.30849354047801 -0.5 Z"/><text text-anchor="middle" pointer-events="none" font-size="8px" fill="#000000" x="75.63661854047801" y="3" font-family="sans-serif">GROUP_IS</text></g><g class="relationship" transform="translate(335.54197981122104 452.83705632278753) rotate(223.26984129817527)"><path class="outline" fill="#A5ABB6" stroke="none" d="M 25 0.5 L 49.3935550744618 0.5 L 49.3935550744618 -0.5 L 25 -0.5 Z M 96.7373050744618 0.5 L 121.1308601489236 0.5 L 121.1308601489236 3.5 L 128.1308601489236 0 L 121.1308601489236 -3.5 L 121.1308601489236 -0.5 L 96.7373050744618 -0.5 Z"/><text text-anchor="middle" pointer-events="none" font-size="8px" fill="#000000" x="73.0654300744618" y="3" transform="rotate(180 73.0654300744618 0)" font-family="sans-serif">GROUP_IS</text></g><g class="relationship" transform="translate(460.58581954227105 207.9763955661006) rotate(220.45355011346635)"><path class="outline" fill="#A5ABB6" stroke="none" d="M 25 0.5 L 49.67544981856142 0.5 L 49.67544981856142 -0.5 L 25 -0.5 Z M 97.01919981856142 0.5 L 121.69464963712284 0.5 L 121.69464963712284 3.5 L 128.69464963712284 0 L 121.69464963712284 -3.5 L 121.69464963712284 -0.5 L 97.01919981856142 -0.5 Z"/><text text-anchor="middle" pointer-events="none" font-size="8px" fill="#000000" x="73.34732481856142" y="3" transform="rotate(180 73.34732481856142 0)" font-family="sans-serif">GROUP_IS</text></g><g class="relationship" transform="translate(495.5609476434648 136.09732407475192) rotate(191.72257594677478)"><path class="outline" fill="#A5ABB6" stroke="none" d="M 25 0.5 L 49.57370057829375 0.5 L 49.57370057829375 -0.5 L 25 -0.5 Z M 96.91745057829375 0.5 L 121.4911511565875 0.5 L 121.4911511565875 3.5 L 128.4911511565875 0 L 121.4911511565875 -3.5 L 121.4911511565875 -0.5 L 96.91745057829375 -0.5 Z"/><text text-anchor="middle" pointer-events="none" font-size="8px" fill="#000000" x="73.24557557829375" y="3" transform="rotate(180 73.24557557829375 0)" font-family="sans-serif">GROUP_IS</text></g><g class="relationship" transform="translate(220.10116480176777 520.1031063358) rotate(269.50902758106247)"><path class="outline" fill="#A5ABB6" stroke="none" d="M 25 0.5 L 57.76542747078895 0.5 L 57.76542747078895 -0.5 L 25 -0.5 Z M 105.10917747078895 0.5 L 137.8746049415779 0.5 L 137.8746049415779 3.5 L 144.8746049415779 0 L 137.8746049415779 -3.5 L 137.8746049415779 -0.5 L 105.10917747078895 -0.5 Z"/><text text-anchor="middle" pointer-events="none" font-size="8px" fill="#000000" x="81.43730247078895" y="3" transform="rotate(180 81.43730247078895 0)" font-family="sans-serif">GROUP_IS</text></g><g class="relationship" transform="translate(376.57121423508556 381.8979011740073) rotate(193.92197877477662)"><path class="outline" fill="#A5ABB6" stroke="none" d="M 25 0.5 L 50.46387628676494 0.5 L 50.46387628676494 -0.5 L 25 -0.5 Z M 97.80762628676494 0.5 L 123.27150257352989 0.5 L 123.27150257352989 3.5 L 130.2715025735299 0 L 123.27150257352989 -3.5 L 123.27150257352989 -0.5 L 97.80762628676494 -0.5 Z"/><text text-anchor="middle" pointer-events="none" font-size="8px" fill="#000000" x="74.13575128676494" y="3" transform="rotate(180 74.13575128676494 0)" font-family="sans-serif">GROUP_IS</text></g><g class="relationship" transform="translate(-213.95675562714968 772.8315373849309) rotate(208.45549840025325)"><path class="outline" fill="#A5ABB6" stroke="none" d="M 25 0.5 L 30.345318710747335 0.5 L 30.345318710747335 -0.5 L 25 -0.5 Z M 77.68906871074734 0.5 L 83.03438742149467 0.5 L 83.03438742149467 3.5 L 90.03438742149467 0 L 83.03438742149467 -3.5 L 83.03438742149467 -0.5 L 77.68906871074734 -0.5 Z"/><text text-anchor="middle" pointer-events="none" font-size="8px" fill="#000000" x="54.017193710747335" y="3" transform="rotate(180 54.017193710747335 0)" font-family="sans-serif">GROUP_IS</text></g><g class="relationship" transform="translate(-353.2462905266559 -76.8842501493271) rotate(411.20615443969564)"><path class="outline" fill="#A5ABB6" stroke="none" d="M 25 0.5 L 27.273910802167535 0.5 L 27.273910802167535 -0.5 L 25 -0.5 Z M 91.06687955216753 0.5 L 93.34079035433507 0.5 L 93.34079035433507 3.5 L 100.34079035433507 0 L 93.34079035433507 -3.5 L 93.34079035433507 -0.5 L 91.06687955216753 -0.5 Z"/><text text-anchor="middle" pointer-events="none" font-size="8px" fill="#000000" x="59.170395177167535" y="3" font-family="sans-serif">SUBGROUP_IS</text></g><g class="relationship" transform="translate(-404.11299620208143 -15.019966346198622) rotate(375.4763611204163)"><path class="outline" fill="#A5ABB6" stroke="none" d="M 25 0.5 L 31.735286286713844 0.5 L 31.735286286713844 -0.5 L 25 -0.5 Z M 95.52825503671384 0.5 L 102.26354132342769 0.5 L 102.26354132342769 3.5 L 109.26354132342769 0 L 102.26354132342769 -3.5 L 102.26354132342769 -0.5 L 95.52825503671384 -0.5 Z"/><text text-anchor="middle" pointer-events="none" font-size="8px" fill="#000000" x="63.631770661713844" y="3" font-family="sans-serif">SUBGROUP_IS</text></g><g class="relationship" transform="translate(-396.96345497919026 63.164653328060794) rotate(340.88900802819353)"><path class="outline" fill="#A5ABB6" stroke="none" d="M 25 0.5 L 29.29156947305958 0.5 L 29.29156947305958 -0.5 L 25 -0.5 Z M 93.08453822305958 0.5 L 97.37610769611916 0.5 L 97.37610769611916 3.5 L 104.37610769611916 0 L 97.37610769611916 -3.5 L 97.37610769611916 -0.5 L 93.08453822305958 -0.5 Z"/><text text-anchor="middle" pointer-events="none" font-size="8px" fill="#000000" x="61.18805384805958" y="3" font-family="sans-serif">SUBGROUP_IS</text></g><g class="relationship" transform="translate(203.6144966804904 51.551782886342) rotate(493.29900455126483)"><path class="outline" fill="#A5ABB6" stroke="none" d="M 25 0.5 L 35.23135583341359 0.5 L 35.23135583341359 -0.5 L 25 -0.5 Z M 82.57510583341359 0.5 L 92.80646166682718 0.5 L 92.80646166682718 3.5 L 99.80646166682718 0 L 92.80646166682718 -3.5 L 92.80646166682718 -0.5 L 82.57510583341359 -0.5 Z"/><text text-anchor="middle" pointer-events="none" font-size="8px" fill="#000000" x="58.90323083341359" y="3" transform="rotate(180 58.90323083341359 0)" font-family="sans-serif">GROUP_IS</text></g></g><g class="layer nodes"><g class="node" transform="translate(-291.7801510670574,427.4920691534498)"><circle class="outline" cx="0" cy="0" r="25" fill="#8DCC93" stroke="#5db665" stroke-width="2px"/><text text-anchor="middle" pointer-events="none" font-family="sans-serif" dy="1.5625" font-size="25" fill="#604A0E"/><text text-anchor="middle" pointer-events="none" y="5" font-size="10px" fill="#604A0E" font-family="sans-serif"> Mandingo</text></g><g class="node" transform="translate(-362.5465403710823,224.86221730156078)"><circle class="outline" cx="0" cy="0" r="25" fill="#8DCC93" stroke="#5db665" stroke-width="2px"/><text text-anchor="middle" pointer-events="none" font-family="sans-serif" dy="1.5625" font-size="25" fill="#604A0E"/><text text-anchor="middle" pointer-events="none" y="5" font-size="10px" fill="#604A0E" font-family="sans-serif"> Dan</text></g><g class="node" transform="translate(-304.8127300325786,352.78726800078306)"><circle class="outline" cx="0" cy="0" r="25" fill="#8DCC93" stroke="#5db665" stroke-width="2px"/><text text-anchor="middle" pointer-events="none" font-family="sans-serif" dy="1.5625" font-size="25" fill="#604A0E"/><text text-anchor="middle" pointer-events="none" y="5" font-size="10px" fill="#604A0E" font-family="sans-serif"> Susu</text></g><g class="node" transform="translate(-139.70135615004693,486.99530189484)"><circle class="outline" cx="0" cy="0" r="25" fill="#8DCC93" stroke="#5db665" stroke-width="2px"/><text text-anchor="middle" pointer-events="none" font-family="sans-serif" dy="1.5625" font-size="25" fill="#604A0E"/><text text-anchor="middle" pointer-events="none" y="5" font-size="10px" fill="#604A0E" font-family="sans-serif"> Soninke</text></g><g class="node" transform="translate(163.0994976649273,641.9404094854418)"><circle class="outline" cx="0" cy="0" r="25" fill="#8DCC93" stroke="#5db665" stroke-width="2px"/><text text-anchor="middle" pointer-events="none" font-family="sans-serif" dy="1.5625" font-size="25" fill="#604A0E"/><text text-anchor="middle" pointer-events="none" y="5" font-size="10px" fill="#604A0E" font-family="sans-serif"> Senoufo</text></g><g class="node" transform="translate(293.01540268327193,640.9222777628289)"><circle class="outline" cx="0" cy="0" r="25" fill="#8DCC93" stroke="#5db665" stroke-width="2px"/><text text-anchor="middle" pointer-events="none" font-family="sans-serif" dy="1.5625" font-size="25" fill="#604A0E"/><text text-anchor="middle" pointer-events="none" y="5" font-size="10px" fill="#604A0E" font-family="sans-serif"> Farefare</text></g><g class="node" transform="translate(113.84497187633458,582.9288683048724)"><circle class="outline" cx="0" cy="0" r="25" fill="#8DCC93" stroke="#5db665" stroke-width="2px"/><text text-anchor="middle" pointer-events="none" font-family="sans-serif" dy="1.5625" font-size="25" fill="#604A0E"/><text text-anchor="middle" pointer-events="none" y="5" font-size="10px" fill="#604A0E" font-family="sans-serif"> Dagbani</text></g><g class="node" transform="translate(228.8906480958581,657.6984685113308)"><circle class="outline" cx="0" cy="0" r="25" fill="#8DCC93" stroke="#5db665" stroke-width="2px"/><text text-anchor="middle" pointer-events="none" font-family="sans-serif" dy="1.5625" font-size="25" fill="#604A0E"/><text text-anchor="middle" pointer-events="none" y="5" font-size="10px" fill="#604A0E" font-family="sans-serif"> Dagaare</text></g><g class="node" transform="translate(333.303426060825,588.3157147271426)"><circle class="outline" cx="0" cy="0" r="25" fill="#8DCC93" stroke="#5db665" stroke-width="2px"/><text text-anchor="middle" pointer-events="none" font-family="sans-serif" dy="1.5625" font-size="25" fill="#604A0E"/><text text-anchor="middle" pointer-events="none" y="5" font-size="10px" fill="#604A0E" font-family="sans-serif"> Gourma…</text></g><g class="node" transform="translate(217.6168944653151,213.5987723808721)"><circle class="outline" cx="0" cy="0" r="25" fill="#8DCC93" stroke="#5db665" stroke-width="2px"/><text text-anchor="middle" pointer-events="none" font-family="sans-serif" dy="1.5625" font-size="25" fill="#604A0E"/><text text-anchor="middle" pointer-events="none" y="5" font-size="10px" fill="#604A0E" font-family="sans-serif"> Mossi</text></g><g class="node" transform="translate(640.4069513753969,180.85103692349668)"><circle class="outline" cx="0" cy="0" r="25" fill="#8DCC93" stroke="#5db665" stroke-width="2px"/><text text-anchor="middle" pointer-events="none" font-family="sans-serif" dy="1.5625" font-size="25" fill="#604A0E"/><text text-anchor="middle" pointer-events="none" y="5" font-size="10px" fill="#604A0E" font-family="sans-serif"> Igbo</text></g><g class="node" transform="translate(585.8680264623463,285.0517959944643)"><circle class="outline" cx="0" cy="0" r="25" fill="#8DCC93" stroke="#5db665" stroke-width="2px"/><text text-anchor="middle" pointer-events="none" font-family="sans-serif" dy="1.5625" font-size="25" fill="#604A0E"/><text text-anchor="middle" pointer-events="none" y="5" font-size="10px" fill="#604A0E" font-family="sans-serif"> Yoruba</text></g><g class="node" transform="translate(102.03971404328898,20.76312456886041)"><circle class="outline" cx="0" cy="0" r="25" fill="#8DCC93" stroke="#5db665" stroke-width="2px"/><text text-anchor="middle" pointer-events="none" font-family="sans-serif" dy="1.5625" font-size="25" fill="#604A0E"/><text text-anchor="middle" pointer-events="none" y="5" font-size="10px" fill="#604A0E" font-family="sans-serif"> Igbala</text></g><g class="node" transform="translate(235.45910630236958,128.38738293333245)"><circle class="outline" cx="0" cy="0" r="25" fill="#8DCC93" stroke="#5db665" stroke-width="2px"/><text text-anchor="middle" pointer-events="none" font-family="sans-serif" dy="1.5625" font-size="25" fill="#604A0E"/><text text-anchor="middle" pointer-events="none" y="5" font-size="10px" fill="#604A0E" font-family="sans-serif"> Tiv</text></g><g class="node" transform="translate(-4.603720089830185,134.4822428372802)"><circle class="outline" cx="0" cy="0" r="25" fill="#8DCC93" stroke="#5db665" stroke-width="2px"/><text text-anchor="middle" pointer-events="none" font-family="sans-serif" dy="1.5625" font-size="25" fill="#604A0E"/><text text-anchor="middle" pointer-events="none" y="5" font-size="10px" fill="#604A0E" font-family="sans-serif"> Ibibio</text></g><g class="node" transform="translate(144.9676212879583,261.17394564137464)"><circle class="outline" cx="0" cy="0" r="25" fill="#8DCC93" stroke="#5db665" stroke-width="2px"/><text text-anchor="middle" pointer-events="none" font-family="sans-serif" dy="1.5625" font-size="25" fill="#604A0E"/><text text-anchor="middle" pointer-events="none" y="5" font-size="10px" fill="#604A0E" font-family="sans-serif"> Anaang</text></g><g class="node" transform="translate(29.822456974533903,58.61849950193748)"><circle class="outline" cx="0" cy="0" r="25" fill="#8DCC93" stroke="#5db665" stroke-width="2px"/><text text-anchor="middle" pointer-events="none" font-family="sans-serif" dy="1.5625" font-size="25" fill="#604A0E"/><text text-anchor="middle" pointer-events="none" y="5" font-size="10px" fill="#604A0E" font-family="sans-serif"> Edo</text></g><g class="node" transform="translate(20.568664175610017,213.7282484790719)"><circle class="outline" cx="0" cy="0" r="25" fill="#8DCC93" stroke="#5db665" stroke-width="2px"/><text text-anchor="middle" pointer-events="none" font-family="sans-serif" dy="1.5625" font-size="25" fill="#604A0E"/><text text-anchor="middle" pointer-events="none" y="5" font-size="10px" fill="#604A0E" font-family="sans-serif"> Nupe</text></g><g class="node" transform="translate(-227.60497480068318,483.0212973714018)"><circle class="outline" cx="0" cy="0" r="25" fill="#8DCC93" stroke="#5db665" stroke-width="2px"/><text text-anchor="middle" pointer-events="none" font-family="sans-serif" dy="1.5625" font-size="25" fill="#604A0E"/><text text-anchor="middle" pointer-events="none" y="5" font-size="10px" fill="#604A0E" font-family="sans-serif"> Kpelle</text></g><g class="node" transform="translate(512.7933915528547,434.5727711407089)"><circle class="outline" cx="0" cy="0" r="25" fill="#8DCC93" stroke="#5db665" stroke-width="2px"/><text text-anchor="middle" pointer-events="none" font-family="sans-serif" dy="1.5625" font-size="25" fill="#604A0E"/><text text-anchor="middle" pointer-events="none" y="5" font-size="10px" fill="#604A0E" font-family="sans-serif"> Akan</text></g><g class="node" transform="translate(454.68315026041716,541.6728594156885)"><circle class="outline" cx="0" cy="0" r="25" fill="#8DCC93" stroke="#5db665" stroke-width="2px"/><text text-anchor="middle" pointer-events="none" font-family="sans-serif" dy="1.5625" font-size="25" fill="#604A0E"/><text text-anchor="middle" pointer-events="none" y="5" font-size="10px" fill="#604A0E" font-family="sans-serif"> Gbe</text></g><g class="node" transform="translate(193.30165498386475,-163.0342886854768)"><circle class="outline" cx="0" cy="0" r="25" fill="#8DCC93" stroke="#5db665" stroke-width="2px"/><text text-anchor="middle" pointer-events="none" font-family="sans-serif" dy="1.5625" font-size="25" fill="#604A0E"/><text text-anchor="middle" pointer-events="none" y="5" font-size="10px" fill="#604A0E" font-family="sans-serif"> Defaka</text></g><g class="node" transform="translate(569.0734621032642,-102.54146242753603)"><circle class="outline" cx="0" cy="0" r="25" fill="#8DCC93" stroke="#5db665" stroke-width="2px"/><text text-anchor="middle" pointer-events="none" font-family="sans-serif" dy="1.5625" font-size="25" fill="#604A0E"/><text text-anchor="middle" pointer-events="none" y="5" font-size="10px" fill="#604A0E" font-family="sans-serif"> Bafia</text></g><g class="node" transform="translate(611.300687883542,-58.63898003647919)"><circle class="outline" cx="0" cy="0" r="25" fill="#8DCC93" stroke="#5db665" stroke-width="2px"/><text text-anchor="middle" pointer-events="none" font-family="sans-serif" dy="1.5625" font-size="25" fill="#604A0E"/><text text-anchor="middle" pointer-events="none" y="5" font-size="10px" fill="#604A0E" font-family="sans-serif"> Oroko</text></g><g class="node" transform="translate(627.7826551386405,0.6088057849856221)"><circle class="outline" cx="0" cy="0" r="25" fill="#8DCC93" stroke="#5db665" stroke-width="2px"/><text text-anchor="middle" pointer-events="none" font-family="sans-serif" dy="1.5625" font-size="25" fill="#604A0E"/><text text-anchor="middle" pointer-events="none" y="5" font-size="10px" fill="#604A0E" font-family="sans-serif"> Makaa</text></g><g class="node" transform="translate(602.8297079783556,60.7875425963747)"><circle class="outline" cx="0" cy="0" r="25" fill="#8DCC93" stroke="#5db665" stroke-width="2px"/><text text-anchor="middle" pointer-events="none" font-family="sans-serif" dy="1.5625" font-size="25" fill="#604A0E"/><text text-anchor="middle" pointer-events="none" y="5" font-size="10px" fill="#604A0E" font-family="sans-serif"> Ewondo</text></g><g class="node" transform="translate(507.18381495788805,-124.73203330802511)"><circle class="outline" cx="0" cy="0" r="25" fill="#8DCC93" stroke="#5db665" stroke-width="2px"/><text text-anchor="middle" pointer-events="none" font-family="sans-serif" dy="1.5625" font-size="25" fill="#604A0E"/><text text-anchor="middle" pointer-events="none" y="5" font-size="10px" fill="#604A0E" font-family="sans-serif"> Kele</text></g><g class="node" transform="translate(435.2957325537998,-105.52274224771614)"><circle class="outline" cx="0" cy="0" r="25" fill="#8DCC93" stroke="#5db665" stroke-width="2px"/><text text-anchor="middle" pointer-events="none" font-family="sans-serif" dy="1.5625" font-size="25" fill="#604A0E"/><text text-anchor="middle" pointer-events="none" y="5" font-size="10px" fill="#604A0E" font-family="sans-serif"> Bubi</text></g><g class="node" transform="translate(-203.27840178017183,-414.924425398684)"><circle class="outline" cx="0" cy="0" r="25" fill="#8DCC93" stroke="#5db665" stroke-width="2px"/><text text-anchor="middle" pointer-events="none" font-family="sans-serif" dy="1.5625" font-size="25" fill="#604A0E"/><text text-anchor="middle" pointer-events="none" y="5" font-size="10px" fill="#604A0E" font-family="sans-serif"> Warnang</text></g><g class="node" transform="translate(-375.4193571888651,-279.70512793583714)"><circle class="outline" cx="0" cy="0" r="25" fill="#8DCC93" stroke="#5db665" stroke-width="2px"/><text text-anchor="middle" pointer-events="none" font-family="sans-serif" dy="1.5625" font-size="25" fill="#604A0E"/><text text-anchor="middle" pointer-events="none" y="5" font-size="10px" fill="#604A0E" font-family="sans-serif"> Tima</text></g><g class="node" transform="translate(-109.90156881943977,816.5489683041634)"><circle class="outline" cx="0" cy="0" r="25" fill="#8DCC93" stroke="#5db665" stroke-width="2px"/><text text-anchor="middle" pointer-events="none" font-family="sans-serif" dy="1.5625" font-size="25" fill="#604A0E"/><text text-anchor="middle" pointer-events="none" y="5" font-size="10px" fill="#604A0E" font-family="sans-serif"> Hailom</text></g><g class="node" transform="translate(-419.77960737966157,639.8822650851595)"><circle class="outline" cx="0" cy="0" r="25" fill="#A5ABB6" stroke="#9AA1AC" stroke-width="2px"/><text text-anchor="middle" pointer-events="none" font-family="sans-serif" dy="1.5625" font-size="25" fill="#FFFFFF"/><text text-anchor="middle" pointer-events="none" y="5" font-size="10px" fill="#FFFFFF" font-family="sans-serif"> </text></g><g class="node" transform="translate(73.58499320378672,267.080064515229)"><circle class="outline" cx="0" cy="0" r="25" fill="#A5ABB6" stroke="#9AA1AC" stroke-width="2px"/><text text-anchor="middle" pointer-events="none" font-family="sans-serif" dy="1.5625" font-size="25" fill="#FFFFFF"/><text text-anchor="middle" pointer-events="none" y="5" font-size="10px" fill="#FFFFFF" font-family="sans-serif"> </text></g><g class="node" transform="translate(3.9988135038748673,-30.382059685349503)"><circle class="outline" cx="0" cy="0" r="25" fill="#F16667" stroke="#eb2728" stroke-width="2px"/><text text-anchor="middle" pointer-events="none" font-family="sans-serif" dy="1.5625" font-size="25" fill="#FFFFFF"/><text text-anchor="middle" pointer-events="none" y="5" font-size="10px" fill="#FFFFFF" font-family="sans-serif"> NigerCo…</text></g><g class="node" transform="translate(-34.38893896498584,-630.4433544274016)"><circle class="outline" cx="0" cy="0" r="25" fill="#F16667" stroke="#eb2728" stroke-width="2px"/><text text-anchor="middle" pointer-events="none" font-family="sans-serif" dy="1.5625" font-size="25" fill="#FFFFFF"/><text text-anchor="middle" pointer-events="none" y="5" font-size="10px" fill="#FFFFFF" font-family="sans-serif"> NiloSah…</text></g><g class="node" transform="translate(449.70489211084737,-476.173901337369)"><circle class="outline" cx="0" cy="0" r="25" fill="#F16667" stroke="#eb2728" stroke-width="2px"/><text text-anchor="middle" pointer-events="none" font-family="sans-serif" dy="1.5625" font-size="25" fill="#FFFFFF"/><text text-anchor="middle" pointer-events="none" y="5" font-size="10px" fill="#FFFFFF" font-family="sans-serif"> AfroAsia…</text></g><g class="node" transform="translate(-497.73800669014094,555.6860483597274)"><circle class="outline" cx="0" cy="0" r="25" fill="#F16667" stroke="#eb2728" stroke-width="2px"/><text text-anchor="middle" pointer-events="none" font-family="sans-serif" dy="1.5625" font-size="25" fill="#FFFFFF"/><text text-anchor="middle" pointer-events="none" y="5" font-size="10px" fill="#FFFFFF" font-family="sans-serif"> Khoisan</text></g><g class="node" transform="translate(345.6047248870179,-529.0022416379735)"><circle class="outline" cx="0" cy="0" r="25" fill="#D9C8AE" stroke="#c0a378" stroke-width="2px"/><text text-anchor="middle" pointer-events="none" font-family="sans-serif" dy="1.5625" font-size="25" fill="#604A0E"/><text text-anchor="middle" pointer-events="none" y="5" font-size="10px" fill="#604A0E" font-family="sans-serif"> Berber</text></g><g class="node" transform="translate(354.66433781577445,-420.61186000982957)"><circle class="outline" cx="0" cy="0" r="25" fill="#D9C8AE" stroke="#c0a378" stroke-width="2px"/><text text-anchor="middle" pointer-events="none" font-family="sans-serif" dy="1.5625" font-size="25" fill="#604A0E"/><text text-anchor="middle" pointer-events="none" y="5" font-size="10px" fill="#604A0E" font-family="sans-serif"> Chadic</text></g><g class="node" transform="translate(526.5938920439842,-393.72882329383566)"><circle class="outline" cx="0" cy="0" r="25" fill="#D9C8AE" stroke="#c0a378" stroke-width="2px"/><text text-anchor="middle" pointer-events="none" font-family="sans-serif" dy="1.5625" font-size="25" fill="#604A0E"/><text text-anchor="middle" pointer-events="none" y="5" font-size="10px" fill="#604A0E" font-family="sans-serif"> Cushitic</text></g><g class="node" transform="translate(562.4826138559857,-487.99736870631324)"><circle class="outline" cx="0" cy="0" r="25" fill="#D9C8AE" stroke="#c0a378" stroke-width="2px"/><text text-anchor="middle" pointer-events="none" font-family="sans-serif" dy="1.5625" font-size="25" fill="#604A0E"/><text text-anchor="middle" pointer-events="none" y="5" font-size="10px" fill="#604A0E" font-family="sans-serif"> Omotic</text></g><g class="node" transform="translate(440.98864941214634,-585.4864436040441)"><circle class="outline" cx="0" cy="0" r="25" fill="#D9C8AE" stroke="#c0a378" stroke-width="2px"/><text text-anchor="middle" pointer-events="none" font-family="sans-serif" dy="1.5625" font-size="25" fill="#604A0E"/><text text-anchor="middle" pointer-events="none" y="5" font-size="10px" fill="#604A0E" font-family="sans-serif"> Semitic</text></g><g class="node" transform="translate(118.02151279879538,142.38401276110122)"><circle class="outline" cx="0" cy="0" r="25" fill="#D9C8AE" stroke="#c0a378" stroke-width="2px"/><text text-anchor="middle" pointer-events="none" font-family="sans-serif" dy="1.5625" font-size="25" fill="#604A0E"/><text text-anchor="middle" pointer-events="none" y="5" font-size="10px" fill="#604A0E" font-family="sans-serif"> Atlantic…</text></g><g class="node" transform="translate(-118.58069735811017,-173.7254486419776)"><circle class="outline" cx="0" cy="0" r="25" fill="#D9C8AE" stroke="#c0a378" stroke-width="2px"/><text text-anchor="middle" pointer-events="none" font-family="sans-serif" dy="1.5625" font-size="25" fill="#604A0E"/><text text-anchor="middle" pointer-events="none" y="5" font-size="10px" fill="#604A0E" font-family="sans-serif"> Kordofa…</text></g><g class="node" transform="translate(-139.51341676399497,-605.8098028831654)"><circle class="outline" cx="0" cy="0" r="25" fill="#D9C8AE" stroke="#c0a378" stroke-width="2px"/><text text-anchor="middle" pointer-events="none" font-family="sans-serif" dy="1.5625" font-size="25" fill="#604A0E"/><text text-anchor="middle" pointer-events="none" y="5" font-size="10px" fill="#604A0E" font-family="sans-serif"> Berta</text></g><g class="node" transform="translate(38.010904132445674,-557.3406566222072)"><circle class="outline" cx="0" cy="0" r="25" fill="#D9C8AE" stroke="#c0a378" stroke-width="2px"/><text text-anchor="middle" pointer-events="none" font-family="sans-serif" dy="1.5625" font-size="25" fill="#604A0E"/><text text-anchor="middle" pointer-events="none" y="5" font-size="10px" fill="#604A0E" font-family="sans-serif"> CentralS…</text></g><g class="node" transform="translate(-401.76273491690904,-474.4812535474204)"><circle class="outline" cx="0" cy="0" r="25" fill="#D9C8AE" stroke="#c0a378" stroke-width="2px"/><text text-anchor="middle" pointer-events="none" font-family="sans-serif" dy="1.5625" font-size="25" fill="#604A0E"/><text text-anchor="middle" pointer-events="none" y="5" font-size="10px" fill="#604A0E" font-family="sans-serif"> KhoeKw…</text></g><g class="node" transform="translate(-87.75671722932624,76.91057222903862)"><circle class="outline" cx="0" cy="0" r="32.5" fill="#ECB5C9" stroke="#da7298" stroke-width="2px"/><text text-anchor="middle" pointer-events="none" font-family="sans-serif" dy="2.03125" font-size="32.5" fill="#604A0E"/><text text-anchor="middle" pointer-events="none" y="5" font-size="10px" fill="#604A0E" font-family="sans-serif"> Atlantic</text></g><g class="node" transform="translate(163.92452507498876,-18.27555248428601)"><circle class="outline" cx="0" cy="0" r="32.5" fill="#ECB5C9" stroke="#da7298" stroke-width="2px"/><text text-anchor="middle" pointer-events="none" font-family="sans-serif" dy="2.03125" font-size="32.5" fill="#604A0E"/><text text-anchor="middle" pointer-events="none" y="5" font-size="10px" fill="#604A0E" font-family="sans-serif"> Ijoid</text></g><g class="node" transform="translate(-63.56188326346179,247.67316851444332)"><circle class="outline" cx="0" cy="0" r="32.5" fill="#ECB5C9" stroke="#da7298" stroke-width="2px"/><text text-anchor="middle" pointer-events="none" font-family="sans-serif" dy="2.03125" font-size="32.5" fill="#604A0E"/><text text-anchor="middle" pointer-events="none" y="5" font-size="10px" fill="#604A0E" font-family="sans-serif"> Mande</text></g><g class="node" transform="translate(337.9276160655555,103.38825000696262)"><circle class="outline" cx="0" cy="0" r="32.5" fill="#ECB5C9" stroke="#da7298" stroke-width="2px"/><text text-anchor="middle" pointer-events="none" font-family="sans-serif" dy="2.03125" font-size="32.5" fill="#604A0E"/><text text-anchor="middle" pointer-events="none" y="5" font-size="10px" fill="#604A0E" font-family="sans-serif"> BenoueCon…</text></g><g class="node" transform="translate(-1.4534537278958626,-168.2213923757372)"><circle class="outline" cx="0" cy="0" r="32.5" fill="#ECB5C9" stroke="#da7298" stroke-width="2px"/><text text-anchor="middle" pointer-events="none" font-family="sans-serif" dy="2.03125" font-size="32.5" fill="#604A0E"/><text text-anchor="middle" pointer-events="none" y="5" font-size="10px" fill="#604A0E" font-family="sans-serif"> VoltaCongo</text></g><g class="node" transform="translate(218.58124529262471,342.73501359399216)"><circle class="outline" cx="0" cy="0" r="32.5" fill="#ECB5C9" stroke="#da7298" stroke-width="2px"/><text text-anchor="middle" pointer-events="none" font-family="sans-serif" dy="2.03125" font-size="32.5" fill="#604A0E"/><text text-anchor="middle" pointer-events="none" y="5" font-size="10px" fill="#604A0E" font-family="sans-serif"> Kwa</text></g><g class="node" transform="translate(-658.5911299591024,34.25161786963568)"><circle class="outline" cx="0" cy="0" r="32.5" fill="#ECB5C9" stroke="#da7298" stroke-width="2px"/><text text-anchor="middle" pointer-events="none" font-family="sans-serif" dy="2.03125" font-size="32.5" fill="#604A0E"/><text text-anchor="middle" pointer-events="none" y="5" font-size="10px" fill="#604A0E" font-family="sans-serif"> North</text></g><g class="node" transform="translate(-143.552739567786,-308.5606192666942)"><circle class="outline" cx="0" cy="0" r="32.5" fill="#ECB5C9" stroke="#da7298" stroke-width="2px"/><text text-anchor="middle" pointer-events="none" font-family="sans-serif" dy="2.03125" font-size="32.5" fill="#604A0E"/><text text-anchor="middle" pointer-events="none" y="5" font-size="10px" fill="#604A0E" font-family="sans-serif"> Heiban</text></g><g class="node" transform="translate(-251.12655115327448,-237.04850426339877)"><circle class="outline" cx="0" cy="0" r="32.5" fill="#ECB5C9" stroke="#da7298" stroke-width="2px"/><text text-anchor="middle" pointer-events="none" font-family="sans-serif" dy="2.03125" font-size="32.5" fill="#604A0E"/><text text-anchor="middle" pointer-events="none" y="5" font-size="10px" fill="#604A0E" font-family="sans-serif"> Katla</text></g><g class="node" transform="translate(126.33423884773215,-494.9518009511601)"><circle class="outline" cx="0" cy="0" r="32.5" fill="#ECB5C9" stroke="#da7298" stroke-width="2px"/><text text-anchor="middle" pointer-events="none" font-family="sans-serif" dy="2.03125" font-size="32.5" fill="#604A0E"/><text text-anchor="middle" pointer-events="none" y="5" font-size="10px" fill="#604A0E" font-family="sans-serif"> East</text></g><g class="node" transform="translate(-321.6874520364643,714.446837746027)"><circle class="outline" cx="0" cy="0" r="32.5" fill="#ECB5C9" stroke="#da7298" stroke-width="2px"/><text text-anchor="middle" pointer-events="none" font-family="sans-serif" dy="2.03125" font-size="32.5" fill="#604A0E"/><text text-anchor="middle" pointer-events="none" y="5" font-size="10px" fill="#604A0E" font-family="sans-serif"> Khoe</text></g><g class="node" transform="translate(484.5493100773933,5.104726974990065)"><circle class="outline" cx="0" cy="0" r="25" fill="#A5ABB6" stroke="#9AA1AC" stroke-width="2px"/><text text-anchor="middle" pointer-events="none" font-family="sans-serif" dy="1.5625" font-size="25" fill="#FFFFFF"/><text text-anchor="middle" pointer-events="none" y="5" font-size="10px" fill="#FFFFFF" font-family="sans-serif"> Bantu</text></g><g class="node" transform="translate(-274.7177666492316,20.807022051838196)"><circle class="outline" cx="0" cy="0" r="25" fill="#A5ABB6" stroke="#9AA1AC" stroke-width="2px"/><text text-anchor="middle" pointer-events="none" font-family="sans-serif" dy="1.5625" font-size="25" fill="#FFFFFF"/><text text-anchor="middle" pointer-events="none" y="5" font-size="10px" fill="#FFFFFF" font-family="sans-serif"> Senega…</text></g><g class="node" transform="translate(-223.8279425963007,229.54714281249693)"><circle class="outline" cx="0" cy="0" r="25" fill="#A5ABB6" stroke="#9AA1AC" stroke-width="2px"/><text text-anchor="middle" pointer-events="none" font-family="sans-serif" dy="1.5625" font-size="25" fill="#FFFFFF"/><text text-anchor="middle" pointer-events="none" y="5" font-size="10px" fill="#FFFFFF" font-family="sans-serif"> Eastern…</text></g><g class="node" transform="translate(-176.16255771681273,369.33603978152024)"><circle class="outline" cx="0" cy="0" r="25" fill="#A5ABB6" stroke="#9AA1AC" stroke-width="2px"/><text text-anchor="middle" pointer-events="none" font-family="sans-serif" dy="1.5625" font-size="25" fill="#FFFFFF"/><text text-anchor="middle" pointer-events="none" y="5" font-size="10px" fill="#FFFFFF" font-family="sans-serif"> Western…</text></g><g class="node" transform="translate(335.54197981122104,452.83705632278753)"><circle class="outline" cx="0" cy="0" r="25" fill="#A5ABB6" stroke="#9AA1AC" stroke-width="2px"/><text text-anchor="middle" pointer-events="none" font-family="sans-serif" dy="1.5625" font-size="25" fill="#FFFFFF"/><text text-anchor="middle" pointer-events="none" y="5" font-size="10px" fill="#FFFFFF" font-family="sans-serif"> LeftBank</text></g><g class="node" transform="translate(460.58581954227105,207.9763955661006)"><circle class="outline" cx="0" cy="0" r="25" fill="#A5ABB6" stroke="#9AA1AC" stroke-width="2px"/><text text-anchor="middle" pointer-events="none" font-family="sans-serif" dy="1.5625" font-size="25" fill="#FFFFFF"/><text text-anchor="middle" pointer-events="none" y="5" font-size="10px" fill="#FFFFFF" font-family="sans-serif"> Defoid</text></g><g class="node" transform="translate(495.5609476434648,136.09732407475192)"><circle class="outline" cx="0" cy="0" r="25" fill="#A5ABB6" stroke="#9AA1AC" stroke-width="2px"/><text text-anchor="middle" pointer-events="none" font-family="sans-serif" dy="1.5625" font-size="25" fill="#FFFFFF"/><text text-anchor="middle" pointer-events="none" y="5" font-size="10px" fill="#FFFFFF" font-family="sans-serif"> Igboid</text></g><g class="node" transform="translate(220.10116480176777,520.1031063358)"><circle class="outline" cx="0" cy="0" r="25" fill="#A5ABB6" stroke="#9AA1AC" stroke-width="2px"/><text text-anchor="middle" pointer-events="none" font-family="sans-serif" dy="1.5625" font-size="25" fill="#FFFFFF"/><text text-anchor="middle" pointer-events="none" y="5" font-size="10px" fill="#FFFFFF" font-family="sans-serif"> Gur</text></g><g class="node" transform="translate(376.57121423508556,381.8979011740073)"><circle class="outline" cx="0" cy="0" r="25" fill="#A5ABB6" stroke="#9AA1AC" stroke-width="2px"/><text text-anchor="middle" pointer-events="none" font-family="sans-serif" dy="1.5625" font-size="25" fill="#FFFFFF"/><text text-anchor="middle" pointer-events="none" y="5" font-size="10px" fill="#FFFFFF" font-family="sans-serif"> Nyo</text></g><g class="node" transform="translate(-213.95675562714968,772.8315373849309)"><circle class="outline" cx="0" cy="0" r="25" fill="#A5ABB6" stroke="#9AA1AC" stroke-width="2px"/><text text-anchor="middle" pointer-events="none" font-family="sans-serif" dy="1.5625" font-size="25" fill="#FFFFFF"/><text text-anchor="middle" pointer-events="none" y="5" font-size="10px" fill="#FFFFFF" font-family="sans-serif"> Khoe</text></g><g class="node" transform="translate(-353.2462905266559,-76.8842501493271)"><circle class="outline" cx="0" cy="0" r="25" fill="#8DCC93" stroke="#5db665" stroke-width="2px"/><text text-anchor="middle" pointer-events="none" font-family="sans-serif" dy="1.5625" font-size="25" fill="#604A0E"/><text text-anchor="middle" pointer-events="none" y="5" font-size="10px" fill="#604A0E" font-family="sans-serif"> Wolof</text></g><g class="node" transform="translate(-404.11299620208143,-15.019966346198622)"><circle class="outline" cx="0" cy="0" r="25" fill="#8DCC93" stroke="#5db665" stroke-width="2px"/><text text-anchor="middle" pointer-events="none" font-family="sans-serif" dy="1.5625" font-size="25" fill="#604A0E"/><text text-anchor="middle" pointer-events="none" y="5" font-size="10px" fill="#604A0E" font-family="sans-serif"> Fulah</text></g><g class="node" transform="translate(-396.96345497919026,63.164653328060794)"><circle class="outline" cx="0" cy="0" r="25" fill="#8DCC93" stroke="#5db665" stroke-width="2px"/><text text-anchor="middle" pointer-events="none" font-family="sans-serif" dy="1.5625" font-size="25" fill="#604A0E"/><text text-anchor="middle" pointer-events="none" y="5" font-size="10px" fill="#604A0E" font-family="sans-serif"> Serer</text></g><g class="node" transform="translate(203.6144966804904,51.551782886342)"><circle class="outline" cx="0" cy="0" r="25" fill="#8DCC93" stroke="#5db665" stroke-width="2px"/><text text-anchor="middle" pointer-events="none" font-family="sans-serif" dy="1.5625" font-size="25" fill="#604A0E"/><text text-anchor="middle" pointer-events="none" y="5" font-size="10px" fill="#604A0E" font-family="sans-serif"> Time</text></g></g></svg>